<mxfile host="drawio-plugin" modified="2024-02-29T09:07:01.116Z" agent="5.0 (X11; Linux x86_64) AppleWebKit/537.36 (KHTML, like Gecko) Chrome/111.0.0.0 Safari/537.36" etag="QDEoZHEvb1g_9sj4o-hB" version="20.5.3" type="embed" pages="2"><diagram id="23iRSUPoRavnBvh4doch" name="Page-1"><mxGraphModel dx="583" dy="1118" grid="1" gridSize="10" guides="1" tooltips="1" connect="1" arrows="1" fold="1" page="1" pageScale="1" pageWidth="827" pageHeight="1169" math="0" shadow="0"><root><mxCell id="0"/><mxCell id="1" parent="0"/><mxCell id="8" value="" style="group" parent="1" vertex="1" connectable="0"><mxGeometry x="29" y="120" width="770" height="380" as="geometry"/></mxCell><mxCell id="2" value="" style="shape=folder;fontStyle=1;spacingTop=10;tabWidth=40;tabHeight=14;tabPosition=left;html=1;" parent="8" vertex="1"><mxGeometry width="770" height="380" as="geometry"/></mxCell><mxCell id="3" value="&lt;u&gt;VideoCamera&lt;/u&gt;&lt;br&gt;&lt;span style=&quot;font-weight: normal;&quot;&gt;(Python-Code since this &lt;br&gt;is probably more limited&lt;br&gt;by the FPS anyways.)&lt;/span&gt;&amp;nbsp;" style="shape=folder;fontStyle=1;spacingTop=10;tabWidth=40;tabHeight=14;tabPosition=left;html=1;" parent="8" vertex="1"><mxGeometry x="40" y="49.99666666666663" width="150" height="140.74074074074073" as="geometry"/></mxCell><mxCell id="4" value="&lt;u&gt;VideoFilter&lt;/u&gt;&lt;br&gt;&lt;span style=&quot;font-weight: normal;&quot;&gt;(This needs to be faster&amp;nbsp;&lt;br&gt;C++ or C# would probably&lt;br&gt;be a good idea.)&lt;/span&gt;" style="shape=folder;fontStyle=1;spacingTop=10;tabWidth=40;tabHeight=14;tabPosition=left;html=1;" parent="8" vertex="1"><mxGeometry x="295" y="57.033703703703694" width="170" height="126.66666666666663" as="geometry"/></mxCell><mxCell id="6" value="&lt;u&gt;VideoTransmitter&lt;/u&gt;&lt;br&gt;&lt;span style=&quot;font-weight: normal;&quot;&gt;UDP-Socket-Transmission&lt;br&gt;using the existing modules&lt;/span&gt;" style="shape=folder;fontStyle=1;spacingTop=10;tabWidth=40;tabHeight=14;tabPosition=left;html=1;" parent="8" vertex="1"><mxGeometry x="560" y="60.55222222222223" width="170" height="119.62962962962965" as="geometry"/></mxCell><mxCell id="Kp_4hMhgHDRuVLOGaOqP-8" value="&lt;u&gt;Compressor&lt;/u&gt;&lt;br&gt;&lt;span style=&quot;font-weight: normal;&quot;&gt;(This needs to be faster&amp;nbsp;&lt;br&gt;C++ or C# would probably&lt;br&gt;be a good idea.)&lt;/span&gt;&lt;u&gt;&lt;br&gt;&lt;/u&gt;" style="shape=folder;fontStyle=1;spacingTop=10;tabWidth=40;tabHeight=14;tabPosition=left;html=1;" parent="8" vertex="1"><mxGeometry x="295" y="240" width="170" height="110" as="geometry"/></mxCell><mxCell id="Kp_4hMhgHDRuVLOGaOqP-12" style="edgeStyle=orthogonalEdgeStyle;rounded=0;orthogonalLoop=1;jettySize=auto;html=1;" parent="8" source="Kp_4hMhgHDRuVLOGaOqP-11" target="3" edge="1"><mxGeometry relative="1" as="geometry"/></mxCell><mxCell id="Kp_4hMhgHDRuVLOGaOqP-13" style="edgeStyle=orthogonalEdgeStyle;rounded=0;orthogonalLoop=1;jettySize=auto;html=1;" parent="8" source="Kp_4hMhgHDRuVLOGaOqP-11" target="4" edge="1"><mxGeometry relative="1" as="geometry"><Array as="points"><mxPoint x="115" y="220"/><mxPoint x="380" y="220"/></Array></mxGeometry></mxCell><mxCell id="Kp_4hMhgHDRuVLOGaOqP-14" style="edgeStyle=orthogonalEdgeStyle;rounded=0;orthogonalLoop=1;jettySize=auto;html=1;" parent="8" source="Kp_4hMhgHDRuVLOGaOqP-11" target="Kp_4hMhgHDRuVLOGaOqP-8" edge="1"><mxGeometry relative="1" as="geometry"><Array as="points"><mxPoint x="115" y="220"/><mxPoint x="223" y="220"/><mxPoint x="223" y="295"/></Array></mxGeometry></mxCell><mxCell id="Kp_4hMhgHDRuVLOGaOqP-15" style="edgeStyle=orthogonalEdgeStyle;rounded=0;orthogonalLoop=1;jettySize=auto;html=1;exitX=0.507;exitY=0.13;exitDx=0;exitDy=0;exitPerimeter=0;" parent="8" source="Kp_4hMhgHDRuVLOGaOqP-11" target="6" edge="1"><mxGeometry relative="1" as="geometry"><Array as="points"><mxPoint x="115" y="253"/><mxPoint x="115" y="220"/><mxPoint x="645" y="220"/></Array></mxGeometry></mxCell><mxCell id="23" style="edgeStyle=orthogonalEdgeStyle;rounded=0;orthogonalLoop=1;jettySize=auto;html=1;entryX=0.5;entryY=0.124;entryDx=0;entryDy=0;entryPerimeter=0;" parent="8" source="Kp_4hMhgHDRuVLOGaOqP-11" target="22" edge="1"><mxGeometry relative="1" as="geometry"><Array as="points"><mxPoint x="115" y="220"/><mxPoint x="645" y="220"/></Array></mxGeometry></mxCell><mxCell id="Kp_4hMhgHDRuVLOGaOqP-11" value="&lt;u&gt;VideoController&lt;/u&gt;" style="shape=folder;fontStyle=1;spacingTop=10;tabWidth=40;tabHeight=14;tabPosition=left;html=1;" parent="8" vertex="1"><mxGeometry x="40" y="240" width="150" height="100" as="geometry"/></mxCell><mxCell id="9" value="Pipes and filters for the video-chain" style="text;html=1;strokeColor=none;fillColor=none;align=center;verticalAlign=middle;whiteSpace=wrap;rounded=0;" parent="8" vertex="1"><mxGeometry x="221" y="10" width="300" height="30" as="geometry"/></mxCell><mxCell id="22" value="&lt;u&gt;Serializer&lt;/u&gt;&lt;br&gt;&lt;span style=&quot;font-weight: normal;&quot;&gt;(testing joblib for performance.&lt;br&gt;If not fasst enough need&lt;br&gt;to switch to C# or C++)&lt;br&gt;&lt;/span&gt;" style="shape=folder;fontStyle=1;spacingTop=10;tabWidth=40;tabHeight=14;tabPosition=left;html=1;" parent="8" vertex="1"><mxGeometry x="560" y="235" width="170" height="110" as="geometry"/></mxCell><mxCell id="FD8qUJdc1LHIB4PWWI64-23" value="Name of the modules changed from *ing (e.g. VideoFiltering) to *er (e.g. VideoFilter). Makes it more clear, that this is the Filter-object.&lt;br&gt;Decided to add &quot;Video&quot; to the beginning of the Modules that can definitely only be used for Video-operations. Any other modules might be used at other places as well later on. Therefore it would make sense to have them not be submodules of video anymore, but be standalone modules." style="text;html=1;strokeColor=none;fillColor=none;align=center;verticalAlign=middle;whiteSpace=wrap;rounded=0;" parent="1" vertex="1"><mxGeometry x="59" y="515" width="740" height="140" as="geometry"/></mxCell></root></mxGraphModel></diagram><diagram id="QhcltbAcBhOWz7ruYMGR" name="Sequence-Diagram"><mxGraphModel dx="1410" dy="1118" grid="1" gridSize="10" guides="1" tooltips="1" connect="1" arrows="1" fold="1" page="1" pageScale="1" pageWidth="827" pageHeight="1169" math="0" shadow="0"><root><mxCell id="0"/><mxCell id="1" parent="0"/><mxCell id="MklySer9mSSO_9Dpl_KQ-9" value="VideoController" style="shape=umlLifeline;perimeter=lifelinePerimeter;whiteSpace=wrap;html=1;container=1;collapsible=0;recursiveResize=0;outlineConnect=0;size=50;" parent="1" vertex="1"><mxGeometry x="110" y="10" width="110" height="670" as="geometry"/></mxCell><mxCell id="MklySer9mSSO_9Dpl_KQ-10" value="" style="shape=umlLifeline;participant=umlActor;perimeter=lifelinePerimeter;whiteSpace=wrap;html=1;container=1;collapsible=0;recursiveResize=0;verticalAlign=top;spacingTop=36;outlineConnect=0;size=55;" parent="1" vertex="1"><mxGeometry x="-110" y="10" width="30" height="450" as="geometry"/></mxCell><mxCell id="MklySer9mSSO_9Dpl_KQ-12" value="VideoCamera&lt;br&gt;Factory" style="shape=umlLifeline;perimeter=lifelinePerimeter;whiteSpace=wrap;html=1;container=1;collapsible=0;recursiveResize=0;outlineConnect=0;size=50;" parent="1" vertex="1"><mxGeometry x="260" y="8.75" width="110" height="355" as="geometry"/></mxCell><mxCell id="MklySer9mSSO_9Dpl_KQ-13" value="VideoFilterFactory" style="shape=umlLifeline;perimeter=lifelinePerimeter;whiteSpace=wrap;html=1;container=1;collapsible=0;recursiveResize=0;outlineConnect=0;size=50;" parent="1" vertex="1"><mxGeometry x="413.5" y="8.75" width="110" height="352.5" as="geometry"/></mxCell><mxCell id="MklySer9mSSO_9Dpl_KQ-14" value="SerializerFactory" style="shape=umlLifeline;perimeter=lifelinePerimeter;whiteSpace=wrap;html=1;container=1;collapsible=0;recursiveResize=0;outlineConnect=0;size=50;" parent="1" vertex="1"><mxGeometry x="560" y="8.75" width="110" height="355" as="geometry"/></mxCell><mxCell id="MklySer9mSSO_9Dpl_KQ-17" value="produceCamera" style="html=1;verticalAlign=bottom;endArrow=block;rounded=0;" parent="1" source="DrlZZzYIPy6spjRNSfUY-7" target="MklySer9mSSO_9Dpl_KQ-12" edge="1"><mxGeometry width="80" relative="1" as="geometry"><mxPoint x="180" y="90" as="sourcePoint"/><mxPoint x="240" y="90" as="targetPoint"/><Array as="points"><mxPoint x="210" y="110"/><mxPoint x="300" y="110"/></Array></mxGeometry></mxCell><mxCell id="DrlZZzYIPy6spjRNSfUY-2" value="CompressorFactory" style="shape=umlLifeline;perimeter=lifelinePerimeter;whiteSpace=wrap;html=1;container=1;collapsible=0;recursiveResize=0;outlineConnect=0;size=50;" parent="1" vertex="1"><mxGeometry x="710" y="8.75" width="110" height="355" as="geometry"/></mxCell><mxCell id="MklySer9mSSO_9Dpl_KQ-25" value="VideoTransmitterFactory" style="shape=umlLifeline;perimeter=lifelinePerimeter;whiteSpace=wrap;html=1;container=1;collapsible=0;recursiveResize=0;outlineConnect=0;size=50;" parent="1" vertex="1"><mxGeometry x="860" y="10" width="140" height="355" as="geometry"/></mxCell><mxCell id="DrlZZzYIPy6spjRNSfUY-7" value="VideoControllerBuilder" style="shape=umlLifeline;perimeter=lifelinePerimeter;whiteSpace=wrap;html=1;container=1;collapsible=0;recursiveResize=0;outlineConnect=0;size=50;" parent="1" vertex="1"><mxGeometry x="-40" y="6.25" width="120" height="443.75" as="geometry"/></mxCell><mxCell id="DrlZZzYIPy6spjRNSfUY-14" value="" style="endArrow=block;html=1;rounded=0;endFill=1;" parent="DrlZZzYIPy6spjRNSfUY-7" edge="1"><mxGeometry width="50" height="50" relative="1" as="geometry"><mxPoint x="-55.18965517241372" y="130.0000000000001" as="sourcePoint"/><mxPoint x="59.50000000000023" y="130.0000000000001" as="targetPoint"/><Array as="points"><mxPoint x="20" y="130"/></Array></mxGeometry></mxCell><mxCell id="DrlZZzYIPy6spjRNSfUY-15" value="addFilter" style="edgeLabel;html=1;align=center;verticalAlign=middle;resizable=0;points=[];" parent="DrlZZzYIPy6spjRNSfUY-14" vertex="1" connectable="0"><mxGeometry x="-0.0412" y="1" relative="1" as="geometry"><mxPoint y="-9" as="offset"/></mxGeometry></mxCell><mxCell id="DrlZZzYIPy6spjRNSfUY-22" value="" style="endArrow=block;html=1;rounded=0;endFill=1;" parent="DrlZZzYIPy6spjRNSfUY-7" edge="1"><mxGeometry width="50" height="50" relative="1" as="geometry"><mxPoint x="-55.18965517241372" y="313.7500000000001" as="sourcePoint"/><mxPoint x="60" y="313.75" as="targetPoint"/></mxGeometry></mxCell><mxCell id="DrlZZzYIPy6spjRNSfUY-23" value="build" style="edgeLabel;html=1;align=center;verticalAlign=middle;resizable=0;points=[];" parent="DrlZZzYIPy6spjRNSfUY-22" vertex="1" connectable="0"><mxGeometry x="0.2114" y="-1" relative="1" as="geometry"><mxPoint x="-15" y="-11" as="offset"/></mxGeometry></mxCell><mxCell id="DrlZZzYIPy6spjRNSfUY-16" value="" style="endArrow=block;html=1;rounded=0;endFill=1;" parent="DrlZZzYIPy6spjRNSfUY-7" edge="1"><mxGeometry width="50" height="50" relative="1" as="geometry"><mxPoint x="-55.18965517241372" y="177.1600000000001" as="sourcePoint"/><mxPoint x="59.50000000000023" y="177.1600000000001" as="targetPoint"/><Array as="points"><mxPoint x="30" y="177.16"/></Array></mxGeometry></mxCell><mxCell id="DrlZZzYIPy6spjRNSfUY-17" value="addCompression" style="edgeLabel;html=1;align=center;verticalAlign=middle;resizable=0;points=[];" parent="DrlZZzYIPy6spjRNSfUY-16" vertex="1" connectable="0"><mxGeometry x="0.3166" relative="1" as="geometry"><mxPoint x="-20" y="-10" as="offset"/></mxGeometry></mxCell><mxCell id="DrlZZzYIPy6spjRNSfUY-20" value="" style="endArrow=block;html=1;rounded=0;endFill=1;" parent="DrlZZzYIPy6spjRNSfUY-7" edge="1"><mxGeometry width="50" height="50" relative="1" as="geometry"><mxPoint x="-55.18965517241372" y="280.0000000000001" as="sourcePoint"/><mxPoint x="59.50000000000023" y="280.0000000000001" as="targetPoint"/><Array as="points"><mxPoint x="10" y="280"/></Array></mxGeometry></mxCell><mxCell id="DrlZZzYIPy6spjRNSfUY-21" value="addTransmission" style="edgeLabel;html=1;align=center;verticalAlign=middle;resizable=0;points=[];" parent="DrlZZzYIPy6spjRNSfUY-20" vertex="1" connectable="0"><mxGeometry x="0.3249" y="1" relative="1" as="geometry"><mxPoint x="-21" y="-9" as="offset"/></mxGeometry></mxCell><mxCell id="DrlZZzYIPy6spjRNSfUY-12" value="" style="endArrow=block;html=1;rounded=0;endFill=1;" parent="1" source="MklySer9mSSO_9Dpl_KQ-10" target="DrlZZzYIPy6spjRNSfUY-7" edge="1"><mxGeometry width="50" height="50" relative="1" as="geometry"><mxPoint x="110" y="150" as="sourcePoint"/><mxPoint x="160" y="100" as="targetPoint"/><Array as="points"><mxPoint x="-30" y="100"/></Array></mxGeometry></mxCell><mxCell id="DrlZZzYIPy6spjRNSfUY-13" value="addCamera" style="edgeLabel;html=1;align=center;verticalAlign=middle;resizable=0;points=[];" parent="DrlZZzYIPy6spjRNSfUY-12" vertex="1" connectable="0"><mxGeometry x="0.3831" relative="1" as="geometry"><mxPoint x="-24" y="-10" as="offset"/></mxGeometry></mxCell><mxCell id="DrlZZzYIPy6spjRNSfUY-24" value="" style="endArrow=block;html=1;rounded=0;endFill=1;" parent="1" source="MklySer9mSSO_9Dpl_KQ-10" target="DrlZZzYIPy6spjRNSfUY-7" edge="1"><mxGeometry width="50" height="50" relative="1" as="geometry"><mxPoint x="70" y="190" as="sourcePoint"/><mxPoint x="120" y="140" as="targetPoint"/><Array as="points"><mxPoint x="-30" y="80"/></Array></mxGeometry></mxCell><mxCell id="DrlZZzYIPy6spjRNSfUY-25" value="__init__" style="edgeLabel;html=1;align=center;verticalAlign=middle;resizable=0;points=[];" parent="DrlZZzYIPy6spjRNSfUY-24" vertex="1" connectable="0"><mxGeometry x="0.2833" y="1" relative="1" as="geometry"><mxPoint x="-18" y="-9" as="offset"/></mxGeometry></mxCell><mxCell id="DrlZZzYIPy6spjRNSfUY-26" value="" style="endArrow=classic;html=1;rounded=0;" parent="1" source="DrlZZzYIPy6spjRNSfUY-7" target="MklySer9mSSO_9Dpl_KQ-9" edge="1"><mxGeometry width="50" height="50" relative="1" as="geometry"><mxPoint x="80" y="150" as="sourcePoint"/><mxPoint x="130" y="100" as="targetPoint"/><Array as="points"><mxPoint x="30" y="90"/><mxPoint x="50" y="90"/><mxPoint x="80" y="90"/><mxPoint x="120" y="90"/></Array></mxGeometry></mxCell><mxCell id="DrlZZzYIPy6spjRNSfUY-27" value="&amp;lt;&amp;lt;create&amp;gt;&amp;gt; __init__()" style="edgeLabel;html=1;align=center;verticalAlign=middle;resizable=0;points=[];" parent="DrlZZzYIPy6spjRNSfUY-26" vertex="1" connectable="0"><mxGeometry x="-0.1579" y="1" relative="1" as="geometry"><mxPoint x="9" y="-9" as="offset"/></mxGeometry></mxCell><mxCell id="DrlZZzYIPy6spjRNSfUY-29" value="" style="endArrow=none;dashed=1;html=1;rounded=0;startArrow=open;startFill=0;" parent="1" source="MklySer9mSSO_9Dpl_KQ-9" target="MklySer9mSSO_9Dpl_KQ-12" edge="1"><mxGeometry width="50" height="50" relative="1" as="geometry"><mxPoint x="240" y="190" as="sourcePoint"/><mxPoint x="290" y="140" as="targetPoint"/><Array as="points"><mxPoint x="210" y="130"/></Array></mxGeometry></mxCell><mxCell id="DrlZZzYIPy6spjRNSfUY-30" value="CameraInterface" style="edgeLabel;html=1;align=center;verticalAlign=middle;resizable=0;points=[];" parent="DrlZZzYIPy6spjRNSfUY-29" vertex="1" connectable="0"><mxGeometry x="-0.185" y="-1" relative="1" as="geometry"><mxPoint x="25" y="-11" as="offset"/></mxGeometry></mxCell><mxCell id="DrlZZzYIPy6spjRNSfUY-31" value="" style="endArrow=block;html=1;rounded=0;endFill=1;" parent="1" source="DrlZZzYIPy6spjRNSfUY-7" target="MklySer9mSSO_9Dpl_KQ-13" edge="1"><mxGeometry width="50" height="50" relative="1" as="geometry"><mxPoint x="90" y="215" as="sourcePoint"/><mxPoint x="140" y="165" as="targetPoint"/><Array as="points"><mxPoint x="290" y="150"/></Array></mxGeometry></mxCell><mxCell id="DrlZZzYIPy6spjRNSfUY-32" value="produceFilter" style="edgeLabel;html=1;align=center;verticalAlign=middle;resizable=0;points=[];" parent="DrlZZzYIPy6spjRNSfUY-31" vertex="1" connectable="0"><mxGeometry x="0.4191" relative="1" as="geometry"><mxPoint x="-98" y="-10" as="offset"/></mxGeometry></mxCell><mxCell id="DrlZZzYIPy6spjRNSfUY-33" value="" style="endArrow=none;dashed=1;html=1;rounded=0;startArrow=open;startFill=0;" parent="1" source="MklySer9mSSO_9Dpl_KQ-9" target="MklySer9mSSO_9Dpl_KQ-13" edge="1"><mxGeometry width="50" height="50" relative="1" as="geometry"><mxPoint x="220" y="250" as="sourcePoint"/><mxPoint x="270" y="200" as="targetPoint"/><Array as="points"><mxPoint x="340" y="170"/></Array></mxGeometry></mxCell><mxCell id="DrlZZzYIPy6spjRNSfUY-34" value="VideoFilterInterface" style="edgeLabel;html=1;align=center;verticalAlign=middle;resizable=0;points=[];" parent="DrlZZzYIPy6spjRNSfUY-33" vertex="1" connectable="0"><mxGeometry x="0.2323" relative="1" as="geometry"><mxPoint x="-37" y="-10" as="offset"/></mxGeometry></mxCell><mxCell id="DrlZZzYIPy6spjRNSfUY-35" value="" style="endArrow=block;html=1;rounded=0;endFill=1;" parent="1" source="DrlZZzYIPy6spjRNSfUY-7" target="MklySer9mSSO_9Dpl_KQ-14" edge="1"><mxGeometry width="50" height="50" relative="1" as="geometry"><mxPoint x="240" y="270" as="sourcePoint"/><mxPoint x="290" y="220" as="targetPoint"/><Array as="points"><mxPoint x="90" y="200"/></Array></mxGeometry></mxCell><mxCell id="DrlZZzYIPy6spjRNSfUY-36" value="produceSerializer" style="edgeLabel;html=1;align=center;verticalAlign=middle;resizable=0;points=[];" parent="DrlZZzYIPy6spjRNSfUY-35" vertex="1" connectable="0"><mxGeometry x="-0.6425" y="-3" relative="1" as="geometry"><mxPoint x="174" y="-13" as="offset"/></mxGeometry></mxCell><mxCell id="DrlZZzYIPy6spjRNSfUY-37" value="" style="endArrow=none;dashed=1;html=1;rounded=0;startArrow=open;startFill=0;" parent="1" source="MklySer9mSSO_9Dpl_KQ-9" target="MklySer9mSSO_9Dpl_KQ-14" edge="1"><mxGeometry width="50" height="50" relative="1" as="geometry"><mxPoint x="370" y="300" as="sourcePoint"/><mxPoint x="420" y="250" as="targetPoint"/><Array as="points"><mxPoint x="410" y="220"/></Array></mxGeometry></mxCell><mxCell id="DrlZZzYIPy6spjRNSfUY-38" value="SerializerInterface" style="edgeLabel;html=1;align=center;verticalAlign=middle;resizable=0;points=[];" parent="DrlZZzYIPy6spjRNSfUY-37" vertex="1" connectable="0"><mxGeometry x="0.1774" y="-1" relative="1" as="geometry"><mxPoint x="-40" y="-11" as="offset"/></mxGeometry></mxCell><mxCell id="DrlZZzYIPy6spjRNSfUY-39" value="" style="endArrow=block;html=1;rounded=0;endFill=1;" parent="1" source="DrlZZzYIPy6spjRNSfUY-7" target="DrlZZzYIPy6spjRNSfUY-2" edge="1"><mxGeometry width="50" height="50" relative="1" as="geometry"><mxPoint x="110" y="400" as="sourcePoint"/><mxPoint x="160" y="350" as="targetPoint"/><Array as="points"><mxPoint x="230" y="250"/><mxPoint x="710" y="250"/></Array></mxGeometry></mxCell><mxCell id="DrlZZzYIPy6spjRNSfUY-40" value="produceCompressor" style="edgeLabel;html=1;align=center;verticalAlign=middle;resizable=0;points=[];" parent="DrlZZzYIPy6spjRNSfUY-39" vertex="1" connectable="0"><mxGeometry x="0.7061" y="1" relative="1" as="geometry"><mxPoint x="-295" y="-9" as="offset"/></mxGeometry></mxCell><mxCell id="DrlZZzYIPy6spjRNSfUY-18" value="" style="endArrow=block;html=1;rounded=0;endFill=1;" parent="1" source="MklySer9mSSO_9Dpl_KQ-10" target="DrlZZzYIPy6spjRNSfUY-7" edge="1"><mxGeometry width="50" height="50" relative="1" as="geometry"><mxPoint x="-90" y="240" as="sourcePoint"/><mxPoint x="14.690000000000225" y="240.0000000000001" as="targetPoint"/><Array as="points"><mxPoint x="-34.81" y="240"/></Array></mxGeometry></mxCell><mxCell id="DrlZZzYIPy6spjRNSfUY-19" value="addSerialization" style="edgeLabel;html=1;align=center;verticalAlign=middle;resizable=0;points=[];" parent="DrlZZzYIPy6spjRNSfUY-18" vertex="1" connectable="0"><mxGeometry x="0.3166" y="1" relative="1" as="geometry"><mxPoint x="-20" y="-9" as="offset"/></mxGeometry></mxCell><mxCell id="DrlZZzYIPy6spjRNSfUY-41" value="" style="endArrow=none;dashed=1;html=1;rounded=0;startArrow=open;startFill=0;" parent="1" source="MklySer9mSSO_9Dpl_KQ-9" target="DrlZZzYIPy6spjRNSfUY-2" edge="1"><mxGeometry width="50" height="50" relative="1" as="geometry"><mxPoint x="350" y="390" as="sourcePoint"/><mxPoint x="400" y="340" as="targetPoint"/><Array as="points"><mxPoint x="400" y="270"/></Array></mxGeometry></mxCell><mxCell id="DrlZZzYIPy6spjRNSfUY-43" value="CompressorInterface" style="edgeLabel;html=1;align=center;verticalAlign=middle;resizable=0;points=[];" parent="DrlZZzYIPy6spjRNSfUY-41" vertex="1" connectable="0"><mxGeometry x="0.1497" y="1" relative="1" as="geometry"><mxPoint x="-41" y="-9" as="offset"/></mxGeometry></mxCell><mxCell id="DrlZZzYIPy6spjRNSfUY-44" value="" style="endArrow=block;html=1;rounded=0;endFill=1;" parent="1" source="DrlZZzYIPy6spjRNSfUY-7" target="MklySer9mSSO_9Dpl_KQ-25" edge="1"><mxGeometry width="50" height="50" relative="1" as="geometry"><mxPoint x="90" y="330" as="sourcePoint"/><mxPoint x="140" y="280" as="targetPoint"/><Array as="points"><mxPoint x="830" y="290"/></Array></mxGeometry></mxCell><mxCell id="DrlZZzYIPy6spjRNSfUY-45" value="produceTransmitter" style="edgeLabel;html=1;align=center;verticalAlign=middle;resizable=0;points=[];" parent="DrlZZzYIPy6spjRNSfUY-44" vertex="1" connectable="0"><mxGeometry x="-0.1981" y="2" relative="1" as="geometry"><mxPoint x="22" y="-8" as="offset"/></mxGeometry></mxCell><mxCell id="DrlZZzYIPy6spjRNSfUY-46" value="" style="endArrow=none;dashed=1;html=1;rounded=0;startArrow=open;startFill=0;" parent="1" source="DrlZZzYIPy6spjRNSfUY-7" target="MklySer9mSSO_9Dpl_KQ-25" edge="1"><mxGeometry width="50" height="50" relative="1" as="geometry"><mxPoint x="70" y="370" as="sourcePoint"/><mxPoint x="120" y="320" as="targetPoint"/><Array as="points"><mxPoint x="890" y="310"/></Array></mxGeometry></mxCell><mxCell id="DrlZZzYIPy6spjRNSfUY-47" value="TransmitterInterface" style="edgeLabel;html=1;align=center;verticalAlign=middle;resizable=0;points=[];" parent="DrlZZzYIPy6spjRNSfUY-46" vertex="1" connectable="0"><mxGeometry x="0.8918" y="2" relative="1" as="geometry"><mxPoint x="-420" y="-8" as="offset"/></mxGeometry></mxCell><mxCell id="DrlZZzYIPy6spjRNSfUY-48" value="" style="endArrow=none;dashed=1;html=1;rounded=0;startArrow=open;startFill=0;" parent="1" source="MklySer9mSSO_9Dpl_KQ-10" target="MklySer9mSSO_9Dpl_KQ-9" edge="1"><mxGeometry width="50" height="50" relative="1" as="geometry"><mxPoint x="70" y="430" as="sourcePoint"/><mxPoint x="120" y="380" as="targetPoint"/><Array as="points"><mxPoint x="-50" y="350"/><mxPoint x="80" y="350"/></Array></mxGeometry></mxCell><mxCell id="DrlZZzYIPy6spjRNSfUY-49" value="VideoController" style="edgeLabel;html=1;align=center;verticalAlign=middle;resizable=0;points=[];" parent="DrlZZzYIPy6spjRNSfUY-48" vertex="1" connectable="0"><mxGeometry x="0.2847" y="-1" relative="1" as="geometry"><mxPoint x="-52" y="-11" as="offset"/></mxGeometry></mxCell><mxCell id="DrlZZzYIPy6spjRNSfUY-52" value="" style="endArrow=classic;html=1;rounded=0;" parent="1" source="MklySer9mSSO_9Dpl_KQ-10" target="MklySer9mSSO_9Dpl_KQ-9" edge="1"><mxGeometry width="50" height="50" relative="1" as="geometry"><mxPoint x="30" y="430" as="sourcePoint"/><mxPoint x="80" y="380" as="targetPoint"/><Array as="points"><mxPoint x="80" y="390"/></Array></mxGeometry></mxCell><mxCell id="DrlZZzYIPy6spjRNSfUY-53" value="start()" style="edgeLabel;html=1;align=center;verticalAlign=middle;resizable=0;points=[];" parent="DrlZZzYIPy6spjRNSfUY-52" vertex="1" connectable="0"><mxGeometry x="0.1732" y="-2" relative="1" as="geometry"><mxPoint x="-27" y="-12" as="offset"/></mxGeometry></mxCell><mxCell id="zNzeKJCN8CRvDUT-ZOnv-1" value="VideoCamera" style="shape=umlLifeline;perimeter=lifelinePerimeter;whiteSpace=wrap;html=1;container=1;collapsible=0;recursiveResize=0;outlineConnect=0;rotation=-180;" parent="1" vertex="1"><mxGeometry x="265" y="390" width="100" height="300" as="geometry"/></mxCell><mxCell id="zNzeKJCN8CRvDUT-ZOnv-12" value="" style="html=1;points=[];perimeter=orthogonalPerimeter;verticalAlign=middle;rotation=0;" parent="zNzeKJCN8CRvDUT-ZOnv-1" vertex="1"><mxGeometry x="45" width="10" height="250" as="geometry"/></mxCell><mxCell id="lFOLh17ualiUW2uZMlYk-1" value="new thread" style="text;html=1;strokeColor=none;fillColor=none;align=center;verticalAlign=middle;whiteSpace=wrap;rounded=0;rotation=-90;" parent="zNzeKJCN8CRvDUT-ZOnv-1" vertex="1"><mxGeometry x="5" y="110" width="90" height="30" as="geometry"/></mxCell><mxCell id="zNzeKJCN8CRvDUT-ZOnv-2" value="readCameraInLoop" style="html=1;verticalAlign=bottom;endArrow=block;rounded=0;" parent="1" source="MklySer9mSSO_9Dpl_KQ-9" target="zNzeKJCN8CRvDUT-ZOnv-1" edge="1"><mxGeometry x="0.133" y="10" width="80" relative="1" as="geometry"><mxPoint x="100" y="510" as="sourcePoint"/><mxPoint x="180" y="510" as="targetPoint"/><Array as="points"><mxPoint x="220" y="400"/></Array><mxPoint as="offset"/></mxGeometry></mxCell><mxCell id="zNzeKJCN8CRvDUT-ZOnv-5" value="VideoFilter" style="shape=umlLifeline;perimeter=lifelinePerimeter;whiteSpace=wrap;html=1;container=1;collapsible=0;recursiveResize=0;outlineConnect=0;rotation=-180;" parent="1" vertex="1"><mxGeometry x="418.5" y="390" width="100" height="300" as="geometry"/></mxCell><mxCell id="zNzeKJCN8CRvDUT-ZOnv-10" value="" style="endArrow=none;startArrow=block;endFill=0;startFill=1;html=1;rounded=0;" parent="1" source="MklySer9mSSO_9Dpl_KQ-9" target="zNzeKJCN8CRvDUT-ZOnv-1" edge="1"><mxGeometry width="160" relative="1" as="geometry"><mxPoint x="210" y="510" as="sourcePoint"/><mxPoint x="370" y="510" as="targetPoint"/><Array as="points"><mxPoint x="240" y="430"/><mxPoint x="300" y="430"/></Array></mxGeometry></mxCell><mxCell id="zNzeKJCN8CRvDUT-ZOnv-11" value="__processFrame(frameData)" style="edgeLabel;html=1;align=center;verticalAlign=middle;resizable=0;points=[];" parent="zNzeKJCN8CRvDUT-ZOnv-10" vertex="1" connectable="0"><mxGeometry x="-0.1114" relative="1" as="geometry"><mxPoint x="9" y="-10" as="offset"/></mxGeometry></mxCell><mxCell id="zNzeKJCN8CRvDUT-ZOnv-4" value="loop" style="edgeStyle=orthogonalEdgeStyle;html=1;align=left;spacingLeft=2;endArrow=block;rounded=0;" parent="1" source="zNzeKJCN8CRvDUT-ZOnv-1" edge="1"><mxGeometry relative="1" as="geometry"><mxPoint x="384" y="400" as="sourcePoint"/><Array as="points"><mxPoint x="370" y="640"/><mxPoint x="370" y="420"/></Array><mxPoint x="330" y="420" as="targetPoint"/></mxGeometry></mxCell><mxCell id="lFOLh17ualiUW2uZMlYk-4" value="" style="endArrow=classic;html=1;rounded=0;" parent="1" source="MklySer9mSSO_9Dpl_KQ-9" target="zNzeKJCN8CRvDUT-ZOnv-5" edge="1"><mxGeometry width="50" height="50" relative="1" as="geometry"><mxPoint x="210" y="560" as="sourcePoint"/><mxPoint x="260" y="510" as="targetPoint"/><Array as="points"><mxPoint x="370" y="460"/></Array></mxGeometry></mxCell><mxCell id="lFOLh17ualiUW2uZMlYk-5" value="filterFrame(imageFrame, filterArgs)" style="edgeLabel;html=1;align=center;verticalAlign=middle;resizable=0;points=[];" parent="lFOLh17ualiUW2uZMlYk-4" vertex="1" connectable="0"><mxGeometry x="-0.2545" relative="1" as="geometry"><mxPoint y="-10" as="offset"/></mxGeometry></mxCell><mxCell id="lFOLh17ualiUW2uZMlYk-6" value="" style="endArrow=none;dashed=1;html=1;rounded=0;startArrow=open;startFill=0;" parent="1" source="MklySer9mSSO_9Dpl_KQ-9" target="zNzeKJCN8CRvDUT-ZOnv-5" edge="1"><mxGeometry width="50" height="50" relative="1" as="geometry"><mxPoint x="60" y="690" as="sourcePoint"/><mxPoint x="110" y="640" as="targetPoint"/><Array as="points"><mxPoint x="290" y="480"/><mxPoint x="410" y="480"/></Array></mxGeometry></mxCell><mxCell id="lFOLh17ualiUW2uZMlYk-7" value="filteredFrame" style="edgeLabel;html=1;align=center;verticalAlign=middle;resizable=0;points=[];" parent="lFOLh17ualiUW2uZMlYk-6" vertex="1" connectable="0"><mxGeometry x="0.225" y="-2" relative="1" as="geometry"><mxPoint x="-86" y="-12" as="offset"/></mxGeometry></mxCell><mxCell id="lFOLh17ualiUW2uZMlYk-9" value="SerializerJoblib" style="shape=umlLifeline;perimeter=lifelinePerimeter;whiteSpace=wrap;html=1;container=1;collapsible=0;recursiveResize=0;outlineConnect=0;rotation=-180;" parent="1" vertex="1"><mxGeometry x="565" y="390" width="100" height="300" as="geometry"/></mxCell><mxCell id="lFOLh17ualiUW2uZMlYk-10" value="" style="endArrow=classic;html=1;rounded=0;" parent="1" source="MklySer9mSSO_9Dpl_KQ-9" target="lFOLh17ualiUW2uZMlYk-9" edge="1"><mxGeometry width="50" height="50" relative="1" as="geometry"><mxPoint x="100" y="690" as="sourcePoint"/><mxPoint x="150" y="640" as="targetPoint"/><Array as="points"><mxPoint x="480" y="510"/></Array></mxGeometry></mxCell><mxCell id="lFOLh17ualiUW2uZMlYk-11" value="serialize(imgFrame)" style="edgeLabel;html=1;align=center;verticalAlign=middle;resizable=0;points=[];" parent="lFOLh17ualiUW2uZMlYk-10" vertex="1" connectable="0"><mxGeometry x="0.5322" y="-3" relative="1" as="geometry"><mxPoint x="-270" y="-13" as="offset"/></mxGeometry></mxCell><mxCell id="lFOLh17ualiUW2uZMlYk-12" value="" style="endArrow=none;dashed=1;html=1;rounded=0;startArrow=open;startFill=0;" parent="1" source="MklySer9mSSO_9Dpl_KQ-9" target="lFOLh17ualiUW2uZMlYk-9" edge="1"><mxGeometry width="50" height="50" relative="1" as="geometry"><mxPoint x="70" y="800" as="sourcePoint"/><mxPoint x="120" y="750" as="targetPoint"/><Array as="points"><mxPoint x="420" y="530"/></Array></mxGeometry></mxCell><mxCell id="lFOLh17ualiUW2uZMlYk-13" value="imageFilePath" style="edgeLabel;html=1;align=center;verticalAlign=middle;resizable=0;points=[];" parent="lFOLh17ualiUW2uZMlYk-12" vertex="1" connectable="0"><mxGeometry x="0.2306" y="-1" relative="1" as="geometry"><mxPoint x="-202" y="-11" as="offset"/></mxGeometry></mxCell><mxCell id="lFOLh17ualiUW2uZMlYk-15" value="" style="endArrow=classic;html=1;rounded=0;" parent="1" source="MklySer9mSSO_9Dpl_KQ-9" target="lFOLh17ualiUW2uZMlYk-16" edge="1"><mxGeometry width="50" height="50" relative="1" as="geometry"><mxPoint x="90" y="770" as="sourcePoint"/><mxPoint x="710" y="590" as="targetPoint"/><Array as="points"><mxPoint x="670" y="560"/></Array></mxGeometry></mxCell><mxCell id="lFOLh17ualiUW2uZMlYk-17" value="compressFile(imageFilePath)" style="edgeLabel;html=1;align=center;verticalAlign=middle;resizable=0;points=[];" parent="lFOLh17ualiUW2uZMlYk-15" vertex="1" connectable="0"><mxGeometry x="0.5624" y="-2" relative="1" as="geometry"><mxPoint x="-394" y="-12" as="offset"/></mxGeometry></mxCell><mxCell id="lFOLh17ualiUW2uZMlYk-16" value="Compressor" style="shape=umlLifeline;perimeter=lifelinePerimeter;whiteSpace=wrap;html=1;container=1;collapsible=0;recursiveResize=0;outlineConnect=0;rotation=-180;" parent="1" vertex="1"><mxGeometry x="715" y="390" width="100" height="300" as="geometry"/></mxCell><mxCell id="lFOLh17ualiUW2uZMlYk-18" value="" style="endArrow=none;dashed=1;html=1;rounded=0;startArrow=open;startFill=0;" parent="1" source="MklySer9mSSO_9Dpl_KQ-9" target="lFOLh17ualiUW2uZMlYk-16" edge="1"><mxGeometry width="50" height="50" relative="1" as="geometry"><mxPoint x="380" y="800" as="sourcePoint"/><mxPoint x="430" y="750" as="targetPoint"/><Array as="points"><mxPoint x="550" y="580"/></Array></mxGeometry></mxCell><mxCell id="lFOLh17ualiUW2uZMlYk-19" value="filePath" style="edgeLabel;html=1;align=center;verticalAlign=middle;resizable=0;points=[];" parent="lFOLh17ualiUW2uZMlYk-18" vertex="1" connectable="0"><mxGeometry x="0.2163" y="-2" relative="1" as="geometry"><mxPoint x="-289" y="-12" as="offset"/></mxGeometry></mxCell><mxCell id="lFOLh17ualiUW2uZMlYk-21" value="" style="endArrow=classic;html=1;rounded=0;" parent="1" source="MklySer9mSSO_9Dpl_KQ-9" target="lFOLh17ualiUW2uZMlYk-22" edge="1"><mxGeometry width="50" height="50" relative="1" as="geometry"><mxPoint x="280" y="810" as="sourcePoint"/><mxPoint x="850" y="610" as="targetPoint"/><Array as="points"><mxPoint x="880" y="610"/></Array></mxGeometry></mxCell><mxCell id="lFOLh17ualiUW2uZMlYk-23" value="transmit(filePath)" style="edgeLabel;html=1;align=center;verticalAlign=middle;resizable=0;points=[];" parent="lFOLh17ualiUW2uZMlYk-21" vertex="1" connectable="0"><mxGeometry x="0.7768" y="-2" relative="1" as="geometry"><mxPoint x="-605" y="-12" as="offset"/></mxGeometry></mxCell><mxCell id="lFOLh17ualiUW2uZMlYk-22" value="VideoTransmitter" style="shape=umlLifeline;perimeter=lifelinePerimeter;whiteSpace=wrap;html=1;container=1;collapsible=0;recursiveResize=0;outlineConnect=0;rotation=-180;" parent="1" vertex="1"><mxGeometry x="880" y="390" width="100" height="300" as="geometry"/></mxCell><mxCell id="lFOLh17ualiUW2uZMlYk-24" value="" style="endArrow=classic;html=1;rounded=0;" parent="1" source="MklySer9mSSO_9Dpl_KQ-9" edge="1"><mxGeometry width="50" height="50" relative="1" as="geometry"><mxPoint x="250" y="810" as="sourcePoint"/><mxPoint x="310" y="630" as="targetPoint"/><Array as="points"><mxPoint x="280" y="630"/></Array></mxGeometry></mxCell><mxCell id="lFOLh17ualiUW2uZMlYk-25" value="return" style="edgeLabel;html=1;align=center;verticalAlign=middle;resizable=0;points=[];" parent="lFOLh17ualiUW2uZMlYk-24" vertex="1" connectable="0"><mxGeometry x="-0.5689" y="-5" relative="1" as="geometry"><mxPoint x="45" y="-15" as="offset"/></mxGeometry></mxCell></root></mxGraphModel></diagram></mxfile>